<svg width="50" height="50" viewBox="0 0 50 50" fill="none" xmlns="http://www.w3.org/2000/svg">
<g filter="url(#filter0_d_64_34)">
<rect x="5" y="1" width="40" height="40" fill="black"/>
<rect x="4.5" y="0.5" width="41" height="41" stroke="black"/>
<path d="M10 11L15 4.33337H35L40 11M10 11V34.3334C10 35.2174 10.3512 36.0653 10.9763 36.6904C11.6014 37.3155 12.4493 37.6667 13.3333 37.6667H36.6667C37.5507 37.6667 38.3986 37.3155 39.0237 36.6904C39.6488 36.0653 40 35.2174 40 34.3334V11M10 11H40M31.6667 17.6667C31.6667 19.4348 30.9643 21.1305 29.714 22.3808C28.4638 23.631 26.7681 24.3334 25 24.3334C23.2319 24.3334 21.5362 23.631 20.286 22.3808C19.0357 21.1305 18.3333 19.4348 18.3333 17.6667" stroke="#B3B3B3" stroke-width="3.5" stroke-linecap="round" stroke-linejoin="round"/>
</g>
<defs>
<filter id="filter0_d_64_34" x="0" y="0" width="50" height="50" filterUnits="userSpaceOnUse" color-interpolation-filters="sRGB">
<feFlood flood-opacity="0" result="BackgroundImageFix"/>
<feColorMatrix in="SourceAlpha" type="matrix" values="0 0 0 0 0 0 0 0 0 0 0 0 0 0 0 0 0 0 127 0" result="hardAlpha"/>
<feOffset dy="4"/>
<feGaussianBlur stdDeviation="2"/>
<feComposite in2="hardAlpha" operator="out"/>
<feColorMatrix type="matrix" values="0 0 0 0 0 0 0 0 0 0 0 0 0 0 0 0 0 0 0.25 0"/>
<feBlend mode="normal" in2="BackgroundImageFix" result="effect1_dropShadow_64_34"/>
<feBlend mode="normal" in="SourceGraphic" in2="effect1_dropShadow_64_34" result="shape"/>
</filter>
</defs>
</svg>
